<?xml version="1.0" standalone="no"?><!DOCTYPE svg PUBLIC "-//W3C//DTD SVG 1.1//EN" "http://www.w3.org/Graphics/SVG/1.1/DTD/svg11.dtd"><svg t="1777378394541" class="icon" viewBox="0 0 1517 1024" version="1.1" xmlns="http://www.w3.org/2000/svg" p-id="1695" width="94.8125" height="64" xmlns:xlink="http://www.w3.org/1999/xlink"><path d="M1040.299985 60.821967a34.972334 34.972334 0 0 0 48.429743-6.280123 33.499637 33.499637 0 0 0-6.381689-47.54951 34.972334 34.972334 0 0 0-48.429743 6.313979 33.499637 33.499637 0 0 0 6.381689 47.515654z" fill="#FFBE58" p-id="1696"></path><path d="M1290.032244 624.408073a34.938479 34.938479 0 0 0-48.412815 6.263197 33.499637 33.499637 0 0 0 6.381689 47.549509 34.972334 34.972334 0 0 0 48.429743-6.313979 33.482709 33.482709 0 0 0-6.398617-47.498727z" fill="#FF765B" p-id="1697"></path><path d="M208.141249 402.606285a37.680743 37.003641 0 1 0 75.361487 0 37.680743 37.003641 0 1 0-75.361487 0Z" fill="#9928FF" p-id="1698"></path><path d="M183.020754 675.190746H100.481982C45.213507 675.190746 0 719.59173 0 773.844552c0 54.26975 45.213507 98.653806 100.481982 98.653807h82.538772c55.268476 0 100.481982-44.384056 100.481982-98.653807 0-54.252822-45.179651-98.653806-100.481982-98.653806zM1039.538245 913.022932h-136.554608c-0.253913 2.91154-0.457044 5.840007-0.457044 8.80233 0 56.199492 46.838552 102.174738 104.070625 102.174738h109.453588c57.232073 0 104.053697-45.975247 104.053697-102.174738 0-52.475429-40.795414-95.962325-92.779943-101.565346v6.550964c0 47.54951-39.373499 86.212051-87.786315 86.212052zM1421.170033 307.574976H1127.32456v190.079545h293.845473c53.237169 0 96.791775-42.759011 96.791775-95.031309 0.084638-52.340008-43.554606-95.048236-96.791775-95.048236z" fill="#D1F6E5" p-id="1699"></path><path d="M1095.026779 238.171989c0-30.046415-24.88351-54.489808-55.488534-54.489808h-16.792137v437.560439l-10.156535 7.888242c-0.084638 0-0.13542 0.169276-0.220058 0.236986l-103.088826 80.964508-89.716056 74.481254c-0.355479 0.304696-0.76174 0.524754-1.134146 0.795595l-15.336367 12.966509H560.894624c-36.208046 0-65.661996-28.912269-65.661996-64.460139V183.682181h-16.809065c-30.588097 0-55.488534 24.443393-55.488534 54.489808v588.655819c0 30.046415 24.900437 54.489808 55.488534 54.489808h561.114682c30.605024 0 55.488534-24.443393 55.488534-54.489808z" fill="#48DA97" p-id="1700"></path><path d="M1127.32456 238.171989c0-47.532582-39.373499-86.195124-87.786315-86.195123h-113.685477V133.001073c0-16.707499-15.38715-30.300328-34.31216-30.300328h-44.28249a4.265745 4.265745 0 0 1-2.539134-0.69403c-12.831089-29.94485-47.295596-50.054788-85.73808-50.054788s-72.923919 20.109939-85.619587 49.919368a3.571715 3.571715 0 0 1-2.606844 0.82945h-44.333273c-18.908082 0-34.312159 13.542046-34.31216 30.300328v18.975793h-113.685477c-48.395887 0-87.786314 38.662542-87.786314 86.195123v588.655819c0 47.532582 39.390427 86.195124 87.786314 86.195124h561.114682c48.412815 0 87.786314-38.662542 87.786315-86.195124V238.171989z m-87.786315 643.145627H478.423563c-30.588097 0-55.488534-24.443393-55.488534-54.489808V238.171989c0-30.046415 24.900437-54.489808 55.488534-54.489808h16.809065v550.365683c0 35.547871 29.45395 64.46014 65.661996 64.46014h242.199496l15.336367-12.966509c0.372406-0.270841 0.778668-0.490899 1.134146-0.795595l89.716056-74.481254 103.088826-80.964509s0.13542-0.169276 0.220058-0.236985l10.156535-7.888242V183.682181h16.792137c30.605024 0 55.488534 24.443393 55.488534 54.489808v588.655819c0 30.046415-24.88351 54.489808-55.488534 54.489808zM626.4212 134.406061h44.265563c14.388424 0 27.084092-7.888242 32.314708-20.093011 7.854387-18.332545 30.351111-30.655807 55.979433-30.655807s48.108119 12.323262 55.979433 30.655807c5.230615 12.204769 17.909356 20.093011 32.297781 20.093011h44.28249a5.789225 5.789225 0 0 1 2.01438 0.338551v78.933201a5.416818 5.416818 0 0 1-2.01438 0.338552H626.4212a5.484529 5.484529 0 0 1-2.014379-0.338552V134.744612a5.873863 5.873863 0 0 1 2.014379-0.338551z m0 111.332547h265.119408c18.925009 0 34.312159-13.542046 34.31216-30.300329V183.682181h64.59556v413.997279h-141.040411a48.362032 48.362032 0 0 0-47.955771 40.913907l-18.061704 126.516566c-0.084638 0.575537 0 1.117219 0 1.692755H560.894624a33.110303 33.110303 0 0 1-33.381144-32.754824V183.682181h64.59556v31.756098c0 16.690572 15.404077 30.300328 34.31216 30.300329zM960.554261 629.384775l-71.705134 56.317985-69.910813 58.01074 14.422279-100.702041a16.115035 16.115035 0 0 1 15.979614-13.542046z" fill="#3E4D6C" p-id="1701"></path><path d="M527.51348 183.682181v550.365683a33.110303 33.110303 0 0 0 33.381144 32.754824h222.495818c0-0.575537-0.101565-1.117219 0-1.692755l18.129415-126.516566a48.362032 48.362032 0 0 1 47.88806-40.913907h141.057339V183.682181h-64.612488v31.756098c0 16.690572-15.38715 30.300328-34.31216 30.300329H626.4212c-18.908082 0-34.312159-13.542046-34.31216-30.300329V183.682181z m174.353845 176.165093h200.422283a19.635967 19.635967 0 1 1 0 39.255006H701.833469a19.635967 19.635967 0 1 1 0-39.255006z m2.877684 81.912452h194.666914a22.462869 22.462869 0 1 1 0 44.925738h-194.666914a22.462869 22.462869 0 1 1 0-44.925738z m-22.919913 106.575903a22.293593 22.293593 0 0 1 22.429014-22.005825h75.361487a22.293593 22.293593 0 0 1 22.395159 22.005825 22.293593 22.293593 0 0 1-22.429014 22.005825h-75.310704a22.293593 22.293593 0 0 1-22.445942-22.005825z m-67.083911-189.927197a20.837824 20.837824 0 0 1 24.206408 16.589006 20.5162 20.5162 0 0 1-16.927558 23.698581 20.854751 20.854751 0 0 1-24.223335-16.605934 20.533127 20.533127 0 0 1 16.944485-23.681653z m0 86.07663a20.837824 20.837824 0 0 1 24.206408 16.589007 20.5162 20.5162 0 0 1-16.927558 23.783219 20.854751 20.854751 0 0 1-24.223335-16.605935 20.533127 20.533127 0 0 1 16.944485-23.766291z m0 86.076631a20.837824 20.837824 0 0 1 24.206408 16.589007 20.5162 20.5162 0 0 1-16.927558 23.783218 20.854751 20.854751 0 0 1-24.223335-16.605934 20.533127 20.533127 0 0 1 16.944485-23.766291z" fill="#FFFFFF" p-id="1702"></path><path d="M833.411375 643.011459l-14.473061 100.702041 69.86003-58.01074 71.705134-56.317985h-111.095561a16.115035 16.115035 0 0 0-15.996542 13.626684zM624.406821 213.677813a5.484529 5.484529 0 0 0 2.014379 0.338552h265.119408a5.416818 5.416818 0 0 0 2.01438-0.338552V134.744612a5.789225 5.789225 0 0 0-2.01438-0.338551h-44.28249c-14.388424 0-27.084092-7.888242-32.297781-20.093011-7.871314-18.332545-30.368038-30.655807-55.979433-30.655807s-48.125047 12.323262-55.979433 30.655807c-5.247543 12.204769-17.926284 20.093011-32.314708 20.093011h-44.265563a5.873863 5.873863 0 0 0-2.014379 0.338551z" fill="#FFFFFF" p-id="1703"></path><path d="M622.05389 398.780657a20.5162 20.5162 0 0 0 16.927558-23.698581 20.837824 20.837824 0 0 0-24.206408-16.589007 20.533127 20.533127 0 0 0-16.927557 23.698581 20.854751 20.854751 0 0 0 24.206407 16.589007zM622.05389 484.857288a20.5162 20.5162 0 0 0 16.927558-23.783219 20.837824 20.837824 0 0 0-24.206408-16.589007 20.533127 20.533127 0 0 0-16.927557 23.698581 20.854751 20.854751 0 0 0 24.206407 16.673645zM622.05389 570.933918a20.5162 20.5162 0 0 0 16.927558-23.783218 20.837824 20.837824 0 0 0-24.206408-16.589007 20.533127 20.533127 0 0 0-16.927557 23.698581 20.854751 20.854751 0 0 0 24.206407 16.673644zM701.833469 399.10228h200.456139a19.635967 19.635967 0 1 0 0-39.255006H701.833469a19.635967 19.635967 0 1 0 0 39.255006zM704.711154 486.685464h194.666914a22.462869 22.462869 0 1 0 0-44.925738h-194.666914a22.462869 22.462869 0 1 0 0 44.925738zM704.271038 570.341454h75.361487a22.293593 22.293593 0 0 0 22.378231-22.005825 22.293593 22.293593 0 0 0-22.429014-22.005825h-75.310704a22.293593 22.293593 0 0 0-22.445942 22.005825 22.293593 22.293593 0 0 0 22.445942 22.005825z" fill="#3BDD93" p-id="1704"></path></svg>